<?xml version="1.0" encoding="UTF-8"?><svg id="a" xmlns="http://www.w3.org/2000/svg" viewBox="0 0 300 300"><defs><style>.c{fill:#27272a;}</style></defs><g id="b"><g><path class="c" d="M142.22,273c-32.23,0-62.34-17.09-78.83-44.67l38.12-22.01c1.02,1.65,2.15,3.26,3.39,4.8,13.18,18.17,34.54,29.05,57.12,29.05,12.53,0,24.88-3.38,35.74-9.77,16.24-9.56,27.79-24.88,32.51-43.12,1.97-7.6,2.65-15.33,2.09-22.93,2.51,13.33,2.01,27.16-1.6,40.65-6.34,23.67-21.53,43.45-42.75,55.7-13.95,8.05-29.78,12.31-45.78,12.31h0Z"/><path class="c" d="M162.03,238.17c-15.83,0-31.04-5.5-43.1-15.2,6.92,3.84,14.78,5.91,22.95,5.91,26.12,0,47.38-21.25,47.38-47.37s-21.25-47.37-47.38-47.37c-3.79,0-7.54,.45-11.18,1.33l57.83-33.39c12.49,7.3,23.19,17.63,31,29.89,.46,.95,.97,1.91,1.52,2.84,9.29,15.78,11.88,34.23,7.3,51.96s-15.8,32.61-31.59,41.9c-10.54,6.21-22.55,9.49-34.72,9.49h0Z"/><polygon class="c" points="96.89 101.37 145.51 73.37 234.25 73.37 119.08 139.86 96.89 101.37"/><rect class="c" x="63.02" y="27" width="173.96" height="44.37"/></g></g></svg>