<?xml version="1.0" encoding="UTF-8"?><svg id="a" xmlns="http://www.w3.org/2000/svg" xmlns:xlink="http://www.w3.org/1999/xlink" viewBox="0 0 300 300"><defs><style>.g{fill:url(#f);stroke:#a3efe1;stroke-width:1px;}.g,.h,.i,.j{stroke-linecap:round;stroke-linejoin:round;}.h{fill:url(#c);}.h,.i{stroke:#8d71e7;}.h,.i,.j{stroke-width:1.03px;}.i{fill:url(#d);}.j{fill:url(#e);stroke:#57afd5;}</style><radialGradient id="c" cx="142.58" cy="178.29" fx="186.62" fy="88.58" r="99.93" gradientTransform="translate(0 .07)" gradientUnits="userSpaceOnUse"><stop offset=".26" stop-color="#480660"/><stop offset="1" stop-color="#5f1396"/></radialGradient><radialGradient id="d" cx="161.87" cy="218.12" fx="202.05" fy="126.61" r="99.93" gradientTransform="translate(0 .07)" gradientUnits="userSpaceOnUse"><stop offset="0" stop-color="#5b00a1"/><stop offset=".76" stop-color="#b019c3"/><stop offset="1" stop-color="#ec6d71"/></radialGradient><radialGradient id="e" cx="187.65" cy="69.59" fx="187.65" fy="69.59" r="105.78" gradientTransform="translate(0 .07)" gradientUnits="userSpaceOnUse"><stop offset=".38" stop-color="#2f1d60"/><stop offset=".64" stop-color="#46239f"/><stop offset="1" stop-color="#562ac4"/></radialGradient><linearGradient id="f" x1="229.99" y1="99.53" x2="50.98" y2="-13.14" gradientUnits="userSpaceOnUse"><stop offset="0" stop-color="#073160"/><stop offset=".4" stop-color="#005bc3"/><stop offset=".8" stop-color="#00a48d"/><stop offset="1" stop-color="#00cb71"/></linearGradient></defs><g id="b"><g><g><path class="h" d="M197.26,229.53c33.1-19.49,44.14-62.13,24.64-95.23-.56-.95-1.06-1.89-1.51-2.82-8.26-13.01-19.29-23.31-31.87-30.56l-69.81,40.3h0l.04,.07c6.8-3.92,14.7-6.16,23.12-6.16,25.61,0,46.38,20.76,46.38,46.37s-20.76,46.37-46.38,46.37c-14.64,0-27.69-6.79-36.19-17.38,20.8,28.69,60.41,37.39,91.57,19.04Z"/><path class="i" d="M222.46,134.88c-.67-1.15-1.36-2.28-2.07-3.39,.45,.93,.95,1.87,1.51,2.82,19.5,33.1,8.46,75.74-24.64,95.23-31.16,18.35-70.77,9.65-91.57-19.04-1.4-1.75-2.68-3.59-3.82-5.53l-39.85,23c25.7,44.09,82.25,59.14,126.49,33.59,44.36-25.61,59.56-82.33,33.95-126.68Z"/></g><polygon class="j" points="237.98 72.37 145.24 72.37 95.53 101 118.72 141.23 188.52 100.92 188.52 100.92 237.98 72.37"/><polygon class="g" points="237.98 26 62.02 26 62.02 72.37 150.01 72.37 237.98 72.37 237.98 26"/></g></g></svg>