<?xml version="1.0" encoding="UTF-8"?><svg id="a" xmlns="http://www.w3.org/2000/svg" xmlns:xlink="http://www.w3.org/1999/xlink" viewBox="0 0 300 300"><defs><style>.g{fill:url(#f);stroke:#a3efe1;stroke-width:.81px;}.g,.h,.i,.j{stroke-linecap:round;stroke-linejoin:round;}.h{fill:url(#d);}.h,.i{stroke:#8d71e7;}.h,.i,.j{stroke-width:.83px;}.i{fill:url(#c);}.j{fill:url(#e);stroke:#57afd5;}</style><radialGradient id="c" cx="144.02" cy="172.82" fx="179.56" fy="100.42" r="80.65" gradientTransform="translate(0 .07)" gradientUnits="userSpaceOnUse"><stop offset=".26" stop-color="#480660"/><stop offset="1" stop-color="#5f1396"/></radialGradient><radialGradient id="d" cx="159.58" cy="204.96" fx="192" fy="131.12" r="80.65" gradientTransform="translate(0 .07)" gradientUnits="userSpaceOnUse"><stop offset="0" stop-color="#5b00a1"/><stop offset=".76" stop-color="#b019c3"/><stop offset="1" stop-color="#ec6d71"/></radialGradient><radialGradient id="e" cx="180.38" cy="85.1" fx="180.38" fy="85.1" r="85.37" gradientTransform="translate(0 .07)" gradientUnits="userSpaceOnUse"><stop offset=".38" stop-color="#2f1d60"/><stop offset=".64" stop-color="#46239f"/><stop offset="1" stop-color="#562ac4"/></radialGradient><linearGradient id="f" x1="214.55" y1="109.27" x2="70.09" y2="18.34" gradientUnits="userSpaceOnUse"><stop offset="0" stop-color="#073160"/><stop offset=".4" stop-color="#005bc3"/><stop offset=".8" stop-color="#00a48d"/><stop offset="1" stop-color="#00cb71"/></linearGradient></defs><g id="b"><g><g><path class="i" d="M188.14,214.19c26.72-15.73,35.62-50.14,19.89-76.85-.45-.77-.86-1.53-1.22-2.28-6.67-10.5-15.57-18.81-25.72-24.66l-56.33,32.53h0l.03,.05c5.49-3.16,11.86-4.97,18.66-4.97,20.67,0,37.43,16.75,37.43,37.42s-16.75,37.42-37.43,37.42c-11.82,0-22.35-5.48-29.21-14.03,16.79,23.15,48.75,30.17,73.9,15.37Z"/><path class="h" d="M208.47,137.79c-.54-.93-1.1-1.84-1.67-2.74,.36,.75,.77,1.51,1.22,2.28,15.73,26.71,6.83,61.12-19.89,76.85-25.15,14.81-57.11,7.79-73.9-15.37-1.13-1.41-2.16-2.9-3.08-4.46l-32.16,18.56c20.74,35.58,66.38,47.72,102.08,27.11,35.8-20.66,48.07-66.44,27.4-102.23Z"/></g><polygon class="j" points="221 87.35 146.16 87.35 106.04 110.46 124.75 142.92 181.09 110.4 181.09 110.39 221 87.35"/><polygon class="g" points="221 49.93 79 49.93 79 87.35 150.01 87.35 221 87.35 221 49.93"/></g></g></svg>