<?xml version="1.0" encoding="UTF-8"?><svg id="a" xmlns="http://www.w3.org/2000/svg" xmlns:xlink="http://www.w3.org/1999/xlink" viewBox="0 0 850 300"><defs><style>.g{fill:url(#c);}.g,.h{stroke:#8d71e7;}.g,.h,.i{stroke-width:.95px;}.g,.h,.i,.j{stroke-linecap:round;stroke-linejoin:round;}.h{fill:url(#d);}.i{fill:url(#e);stroke:#57afd5;}.k{fill:#fff;}.l{fill:#27272a;}.j{fill:url(#f);stroke:#a3efe1;stroke-width:.92px;}</style><radialGradient id="c" cx="112.72" cy="176.53" fx="153.24" fy="94" r="91.94" gradientTransform="translate(0 .02)" gradientUnits="userSpaceOnUse"><stop offset=".26" stop-color="#480660"/><stop offset="1" stop-color="#5f1396"/></radialGradient><radialGradient id="d" cx="130.47" cy="213.17" fx="167.42" fy="128.99" r="91.94" gradientTransform="translate(0 .02)" gradientUnits="userSpaceOnUse"><stop offset="0" stop-color="#5b00a1"/><stop offset=".76" stop-color="#b019c3"/><stop offset="1" stop-color="#ec6d71"/></radialGradient><radialGradient id="e" cx="154.18" cy="76.53" fx="154.18" fy="76.53" r="97.32" gradientTransform="translate(0 .02)" gradientUnits="userSpaceOnUse"><stop offset=".38" stop-color="#2f1d60"/><stop offset=".64" stop-color="#46239f"/><stop offset="1" stop-color="#562ac4"/></radialGradient><linearGradient id="f" x1="193.13" y1="104.03" x2="28.45" y2=".37" gradientUnits="userSpaceOnUse"><stop offset="0" stop-color="#073160"/><stop offset=".4" stop-color="#005bc3"/><stop offset=".8" stop-color="#00a48d"/><stop offset="1" stop-color="#00cb71"/></linearGradient></defs><g id="b"><rect class="l" x="-20" y="-7.06" width="890" height="314.12"/><g><g><path class="g" d="M163.02,223.63c30.46-17.93,40.61-57.16,22.67-87.61-.52-.88-.98-1.74-1.39-2.6-7.6-11.97-17.75-21.45-29.32-28.12l-64.22,37.08h0l.03,.06c6.26-3.61,13.52-5.67,21.27-5.67,23.57,0,42.67,19.1,42.67,42.66s-19.1,42.66-42.67,42.66c-13.47,0-25.48-6.24-33.29-15.99,19.14,26.39,55.58,34.4,84.24,17.52Z"/><path class="h" d="M186.2,136.55c-.61-1.06-1.25-2.1-1.9-3.12,.41,.86,.87,1.72,1.39,2.6,17.94,30.45,7.79,69.68-22.67,87.61-28.67,16.88-65.11,8.88-84.24-17.52-1.29-1.61-2.47-3.3-3.52-5.09l-36.66,21.16c23.65,40.56,75.67,54.41,116.37,30.9,40.81-23.56,54.8-75.74,31.23-116.55Z"/></g><polygon class="i" points="200.48 79.04 115.16 79.04 69.43 105.38 90.76 142.39 154.98 105.31 154.98 105.31 200.48 79.04"/><polygon class="j" points="200.48 36.38 38.6 36.38 38.6 79.04 119.55 79.04 200.48 79.04 200.48 36.38"/></g><g><path class="k" d="M264.22,148.73c0,4.15,5.9,7.72,17.71,10.7,4.15,.91,7.91,1.98,11.29,3.21,3.37,1.23,6.78,2.99,10.22,5.25,3.44,2.27,6.13,5.29,8.08,9.05,1.95,3.76,2.92,8.11,2.92,13.04,0,9.99-3.76,17.71-11.29,23.15-7.53,5.32-16.8,7.98-27.83,7.98-19.98,0-33.6-7.72-40.86-23.15l21.79-12.26c2.98,8.43,9.34,12.65,19.07,12.65,8.95,0,13.43-2.79,13.43-8.37,0-4.15-5.9-7.72-17.71-10.7-4.41-1.17-8.17-2.33-11.29-3.5-3.11-1.17-6.49-2.89-10.12-5.16-3.63-2.27-6.39-5.19-8.27-8.76-1.88-3.57-2.82-7.75-2.82-12.55,0-9.6,3.5-17.12,10.51-22.57,7.13-5.58,15.96-8.37,26.46-8.37,7.91,0,15.11,1.78,21.6,5.35,6.48,3.57,11.61,8.66,15.37,15.27l-21.4,11.67c-3.11-6.62-8.3-9.92-15.57-9.92-3.24,0-5.93,.75-8.08,2.24-2.14,1.49-3.21,3.41-3.21,5.74Z"/><path class="k" d="M379.42,121.1v24.13h-21.99v40.47c0,3.37,.84,5.84,2.53,7.39,1.68,1.56,4.15,2.43,7.39,2.63,3.24,.19,7.26,.16,12.06-.1v22.76c-17,1.95-29.09,.36-36.29-4.77-7.2-5.12-10.8-14.43-10.8-27.92v-40.47h-16.93v-24.13h16.93v-19.65l25.1-7.59v27.24h21.99Z"/><path class="k" d="M459,173.63v-52.53h25.1v97.28h-25.1v-10.9c-5.97,9.08-15.63,13.62-28.99,13.62-10.64,0-19.46-3.57-26.46-10.7-6.88-7.26-10.31-17.12-10.31-29.57v-59.73h25.1v56.62c0,6.36,1.72,11.28,5.16,14.79,3.44,3.5,8.14,5.25,14.11,5.25,6.62,0,11.84-2.04,15.66-6.13,3.82-4.09,5.74-10.08,5.74-18Z"/><path class="k" d="M576.92,132.58v-50.39h25.1V218.38h-25.1v-11.48c-7.39,9.47-17.9,14.2-31.52,14.2s-24.32-4.93-33.66-14.79c-9.21-9.99-13.82-22.18-13.82-36.58s4.6-26.39,13.82-36.38c9.34-9.99,20.56-14.98,33.66-14.98s24.13,4.74,31.52,14.2Zm-46.31,57.01c5.32,5.06,11.8,7.59,19.46,7.59s14.21-2.53,19.26-7.59c5.06-5.19,7.59-11.8,7.59-19.85s-2.53-14.59-7.59-19.65c-5.06-5.19-11.48-7.78-19.26-7.78s-14.27,2.6-19.46,7.78c-5.06,5.06-7.59,11.61-7.59,19.65s2.53,14.66,7.59,19.85Z"/><path class="k" d="M652.23,204.37c0,4.54-1.62,8.43-4.87,11.67-3.24,3.24-7.14,4.86-11.68,4.86s-8.43-1.62-11.68-4.86c-3.24-3.24-4.86-7.13-4.86-11.67s1.62-8.43,4.86-11.67c3.24-3.24,7.13-4.86,11.68-4.86s8.43,1.62,11.68,4.86c3.24,3.24,4.87,7.14,4.87,11.67Z"/><path class="k" d="M681.8,111.17c-4.15,0-7.72-1.49-10.7-4.48-2.99-2.98-4.48-6.55-4.48-10.7s1.49-7.69,4.48-10.6c2.98-2.92,6.55-4.38,10.7-4.38s7.52,1.49,10.51,4.48c2.98,2.99,4.48,6.49,4.48,10.51s-1.49,7.72-4.48,10.7c-2.99,2.99-6.49,4.48-10.51,4.48Zm12.65,107.21h-25.1V121.1h25.1v97.28Z"/><path class="k" d="M796.42,206.32c-9.86,9.86-22.06,14.79-36.58,14.79s-26.73-4.93-36.58-14.79c-9.86-9.86-14.79-22.05-14.79-36.58s4.93-26.52,14.79-36.38c9.99-9.99,22.18-14.98,36.58-14.98s26.59,4.99,36.58,14.98c9.99,9.99,14.98,22.12,14.98,36.38s-5,26.59-14.98,36.58Zm-55.46-17.32c5.06,5.06,11.35,7.59,18.88,7.59s13.82-2.53,18.88-7.59c5.06-5.06,7.59-11.48,7.59-19.26s-2.53-14.2-7.59-19.26c-5.06-5.06-11.35-7.59-18.88-7.59s-13.82,2.53-18.88,7.59c-4.93,5.19-7.39,11.61-7.39,19.26s2.46,14.08,7.39,19.26Z"/></g></g></svg>