<?xml version="1.0" encoding="UTF-8"?><svg id="a" xmlns="http://www.w3.org/2000/svg" xmlns:xlink="http://www.w3.org/1999/xlink" viewBox="0 0 850 300"><defs><style>.g{fill:url(#f);stroke:#a3efe1;stroke-width:1px;}.g,.h,.i,.j{stroke-linecap:round;stroke-linejoin:round;}.k{fill:#fff;}.l{fill:#27272a;}.h{fill:url(#c);}.h,.i{stroke:#8d71e7;}.h,.i,.j{stroke-width:1.03px;}.i{fill:url(#d);}.j{fill:url(#e);stroke:#57afd5;}</style><radialGradient id="c" cx="85.56" cy="178.33" fx="129.6" fy="88.63" r="99.93" gradientTransform="translate(0 .02)" gradientUnits="userSpaceOnUse"><stop offset=".26" stop-color="#480660"/><stop offset="1" stop-color="#5f1396"/></radialGradient><radialGradient id="d" cx="104.85" cy="218.16" fx="145.03" fy="126.66" r="99.93" gradientTransform="translate(0 .02)" gradientUnits="userSpaceOnUse"><stop offset="0" stop-color="#5b00a1"/><stop offset=".76" stop-color="#b019c3"/><stop offset="1" stop-color="#ec6d71"/></radialGradient><radialGradient id="e" cx="130.63" cy="69.64" fx="130.63" fy="69.64" r="105.78" gradientTransform="translate(0 .02)" gradientUnits="userSpaceOnUse"><stop offset=".38" stop-color="#2f1d60"/><stop offset=".64" stop-color="#46239f"/><stop offset="1" stop-color="#562ac4"/></radialGradient><linearGradient id="f" x1="172.97" y1="99.53" x2="-6.04" y2="-13.14" gradientUnits="userSpaceOnUse"><stop offset="0" stop-color="#073160"/><stop offset=".4" stop-color="#005bc3"/><stop offset=".8" stop-color="#00a48d"/><stop offset="1" stop-color="#00cb71"/></linearGradient></defs><g id="b"><rect class="l" y="-.5" width="850" height="300"/><g><g><path class="h" d="M140.24,229.53c33.1-19.49,44.14-62.13,24.64-95.23-.56-.95-1.06-1.89-1.51-2.82-8.26-13.01-19.29-23.31-31.87-30.56l-69.81,40.3h0l.04,.07c6.8-3.92,14.7-6.16,23.12-6.16,25.61,0,46.38,20.76,46.38,46.37s-20.76,46.37-46.38,46.37c-14.64,0-27.69-6.79-36.19-17.38,20.8,28.69,60.41,37.39,91.57,19.04Z"/><path class="i" d="M165.44,134.88c-.67-1.15-1.36-2.28-2.07-3.39,.45,.93,.95,1.87,1.51,2.82,19.5,33.1,8.46,75.74-24.64,95.23-31.16,18.35-70.77,9.65-91.57-19.04-1.4-1.75-2.68-3.59-3.82-5.53L5,227.97c25.7,44.09,82.25,59.14,126.49,33.59,44.36-25.61,59.56-82.33,33.95-126.68Z"/></g><polygon class="j" points="180.96 72.37 88.22 72.37 38.51 101 61.7 141.23 131.5 100.92 131.5 100.92 180.96 72.37"/><polygon class="g" points="180.96 26 5 26 5 72.37 92.99 72.37 180.96 72.37 180.96 26"/></g><g><path class="k" d="M250.24,148.11c0,4.51,6.41,8.39,19.25,11.63,4.51,.99,8.6,2.15,12.27,3.49,3.66,1.34,7.37,3.24,11.1,5.71,3.73,2.47,6.66,5.75,8.78,9.83,2.11,4.09,3.17,8.81,3.17,14.17,0,10.86-4.09,19.25-12.27,25.17-8.18,5.78-18.26,8.67-30.25,8.67-21.72,0-36.52-8.39-44.42-25.17l23.69-13.32c3.24,9.17,10.15,13.75,20.73,13.75,9.73,0,14.59-3.03,14.59-9.09,0-4.51-6.42-8.39-19.25-11.63-4.8-1.27-8.88-2.54-12.27-3.81-3.38-1.27-7.05-3.14-11-5.6-3.95-2.47-6.95-5.64-8.99-9.52-2.05-3.88-3.07-8.42-3.07-13.64,0-10.43,3.81-18.61,11.42-24.53,7.75-6.06,17.34-9.09,28.77-9.09,8.6,0,16.43,1.94,23.48,5.82,7.05,3.88,12.62,9.41,16.71,16.6l-23.27,12.69c-3.38-7.19-9.03-10.79-16.92-10.79-3.53,0-6.45,.81-8.78,2.43-2.33,1.62-3.49,3.7-3.49,6.24Z"/><path class="k" d="M375.45,118.08v26.22h-23.9v43.99c0,3.67,.92,6.34,2.75,8.04,1.83,1.69,4.51,2.64,8.04,2.86,3.52,.21,7.9,.18,13.11-.11v24.74c-18.47,2.11-31.62,.39-39.45-5.18-7.83-5.57-11.74-15.68-11.74-30.35v-43.99h-18.4v-26.22h18.4v-21.36l27.28-8.25v29.61h23.9Z"/><path class="k" d="M461.96,175.19v-57.1h27.28v105.74h-27.28v-11.84c-6.49,9.87-16.99,14.8-31.52,14.8-11.56,0-21.15-3.88-28.77-11.63-7.48-7.89-11.21-18.61-11.21-32.15V118.08h27.28v61.54c0,6.91,1.87,12.27,5.61,16.07,3.73,3.81,8.85,5.71,15.33,5.71,7.19,0,12.87-2.22,17.03-6.66,4.16-4.44,6.24-10.96,6.24-19.56Z"/><path class="k" d="M590.14,130.56v-54.77h27.28V223.83h-27.28v-12.48c-8.04,10.29-19.46,15.44-34.26,15.44s-26.44-5.36-36.59-16.07c-10.01-10.86-15.02-24.11-15.02-39.76s5-28.69,15.02-39.55c10.15-10.86,22.35-16.28,36.59-16.28s26.23,5.15,34.26,15.44Zm-50.34,61.97c5.78,5.5,12.83,8.25,21.15,8.25s15.44-2.75,20.94-8.25c5.5-5.64,8.25-12.83,8.25-21.57s-2.75-15.86-8.25-21.36c-5.5-5.64-12.48-8.46-20.94-8.46s-15.51,2.82-21.15,8.46c-5.5,5.5-8.25,12.62-8.25,21.36s2.75,15.93,8.25,21.57Z"/><path class="k" d="M671.99,208.6c0,4.94-1.76,9.17-5.29,12.69-3.53,3.52-7.76,5.29-12.69,5.29s-9.17-1.76-12.69-5.29c-3.53-3.52-5.29-7.75-5.29-12.69s1.76-9.16,5.29-12.69c3.52-3.52,7.75-5.29,12.69-5.29s9.16,1.76,12.69,5.29c3.52,3.53,5.29,7.76,5.29,12.69Z"/><path class="k" d="M704.14,107.3c-4.51,0-8.39-1.62-11.63-4.86-3.25-3.24-4.86-7.12-4.86-11.63s1.62-8.35,4.86-11.53c3.24-3.17,7.12-4.76,11.63-4.76s8.18,1.62,11.42,4.86c3.24,3.25,4.86,7.05,4.86,11.42s-1.62,8.39-4.86,11.63c-3.25,3.25-7.05,4.86-11.42,4.86Zm13.75,116.53h-27.28V118.08h27.28v105.74Z"/><path class="k" d="M828.71,210.71c-10.72,10.72-23.97,16.07-39.76,16.07s-29.05-5.36-39.76-16.07c-10.72-10.71-16.07-23.97-16.07-39.76s5.36-28.83,16.07-39.55c10.86-10.86,24.11-16.28,39.76-16.28s28.9,5.43,39.76,16.28c10.86,10.86,16.29,24.04,16.29,39.55s-5.43,28.9-16.29,39.76Zm-60.28-18.82c5.5,5.5,12.34,8.25,20.52,8.25s15.02-2.75,20.52-8.25c5.5-5.5,8.25-12.48,8.25-20.94s-2.75-15.44-8.25-20.94c-5.5-5.5-12.34-8.25-20.52-8.25s-15.02,2.75-20.52,8.25c-5.36,5.64-8.04,12.62-8.04,20.94s2.68,15.3,8.04,20.94Z"/></g></g></svg>